<?xml version="1.0" ?><svg style="enable-background:new 0 0 512 512;" version="1.1" viewBox="0 0 512 512" xml:space="preserve" xmlns="http://www.w3.org/2000/svg" xmlns:xlink="http://www.w3.org/1999/xlink"><g id="_x35__x5F_Book"><g id="XMLID_362_"><g id="XMLID_363_"><g id="XMLID_374_"><linearGradient gradientTransform="matrix(0.7314 -0.682 0.682 0.7314 -64.6297 297.6179)" gradientUnits="userSpaceOnUse" id="XMLID_2_" x1="287.226" x2="393.4602" y1="222.8107" y2="222.8107"><stop offset="0" style="stop-color:#8ADC3F"/><stop offset="1" style="stop-color:#CCFF81"/></linearGradient><path d="M324.31,149.04C357.7,163.77,381,197.16,381,236      c0,31.47-15.3,59.37-38.88,76.65c-3.5-12.55-6.2-28.83-1.08-39.74c9.37-20,6.25-32.5-21.88-71.29      C301.03,176.61,313.3,158.64,324.31,149.04z" id="XMLID_1950_" style="fill:url(#XMLID_2_);"/><linearGradient gradientTransform="matrix(0.7314 -0.682 0.682 0.7314 -104.869 227.2346)" gradientUnits="userSpaceOnUse" id="XMLID_3_" x1="184.8835" x2="285.8846" y1="254.6944" y2="254.6944"><stop offset="0" style="stop-color:#8ADC3F"/><stop offset="1" style="stop-color:#CCFF81"/></linearGradient><path d="M263.54,231.2c-13.13,34.21,33.75,49.84,11.25,91.71      c-1.32,2.46-2.57,4.77-3.74,6.92C225.68,322.66,191,283.38,191,236c0-28.99,12.98-54.95,33.45-72.37      C244.66,180.68,272.07,208.96,263.54,231.2z" id="XMLID_1949_" style="fill:url(#XMLID_3_);"/><linearGradient gradientTransform="matrix(0.7314 -0.682 0.682 0.7314 -84.3554 257.8513)" gradientUnits="userSpaceOnUse" id="XMLID_4_" x1="210.8377" x2="373.0881" y1="236.3142" y2="236.3142"><stop offset="0" style="stop-color:#7DABDC"/><stop offset="1" style="stop-color:#BFEDFF"/></linearGradient><path d="M342.12,312.65C326.4,324.19,307,331,286,331      c-5.09,0-10.08-0.4-14.95-1.17c1.17-2.15,2.42-4.46,3.74-6.92c22.5-41.87-24.38-57.5-11.25-91.71      c8.53-22.24-18.88-50.52-39.09-67.57C241.03,149.51,262.52,141,286,141c13.63,0,26.59,2.87,38.31,8.04      c-11.01,9.6-23.28,27.57-5.15,52.58c28.13,38.79,31.25,51.29,21.88,71.29C335.92,283.82,338.62,300.1,342.12,312.65z" id="XMLID_1948_" style="fill:url(#XMLID_4_);"/><linearGradient gradientTransform="matrix(0.7314 -0.682 0.682 0.7314 -252.4478 301.124)" gradientUnits="userSpaceOnUse" id="XMLID_5_" x1="127.2664" x2="397.1333" y1="477.2025" y2="477.2025"><stop offset="0" style="stop-color:#B3C9DD"/><stop offset="1" style="stop-color:#F5FFFF"/></linearGradient><path d="M421,441v60H121c-16.57,0-30-13.43-30-30c0-8.28,3.36-15.78,8.79-21.21      c5.43-5.43,12.93-8.79,21.21-8.79h30H421z" id="XMLID_1946_" style="fill:url(#XMLID_5_);"/><linearGradient gradientTransform="matrix(0.7314 -0.682 0.682 0.7314 57.55 238.0992)" gradientUnits="userSpaceOnUse" id="XMLID_6_" x1="292.503" x2="369.497" y1="46" y2="46"><stop offset="0" style="stop-color:#DEB644"/><stop offset="1" style="stop-color:#FFF886"/></linearGradient><polygon id="XMLID_1945_" points="351,11 351,81 331,71 311,81 311,11     " style="fill:url(#XMLID_6_);"/><linearGradient gradientTransform="matrix(0.7314 -0.682 0.682 0.7314 -131.8554 147.2656)" gradientUnits="userSpaceOnUse" id="XMLID_7_" x1="-57.8002" x2="299.8002" y1="239.3308" y2="239.3308"><stop offset="0" style="stop-color:#9B4D2D"/><stop offset="1" style="stop-color:#DD8F6F"/></linearGradient><path d="M151,11v430h-30c-8.28,0-15.78,3.36-21.21,8.79      C94.36,455.22,91,462.72,91,471V56c0-24.85,20.15-45,45-45H151z" id="XMLID_1944_" style="fill:url(#XMLID_7_);"/><linearGradient gradientTransform="matrix(0.7314 -0.682 0.682 0.7314 -84.1188 258.4521)" gradientUnits="userSpaceOnUse" id="XMLID_8_" x1="47.4576" x2="538.1824" y1="228.6865" y2="228.6865"><stop offset="0" style="stop-color:#B65F33"/><stop offset="1" style="stop-color:#F8A175"/></linearGradient><path d="M421,11v430H151V11h160v70l20-10l20,10V11H421z M381,236      c0-38.84-23.3-72.23-56.69-86.96C312.59,143.87,299.63,141,286,141c-23.48,0-44.97,8.51-61.55,22.63      C203.98,181.05,191,207.01,191,236c0,47.38,34.68,86.66,80.05,93.83c4.87,0.77,9.86,1.17,14.95,1.17c21,0,40.4-6.81,56.12-18.35      C365.7,295.37,381,267.47,381,236z" id="XMLID_1941_" style="fill:url(#XMLID_8_);"/></g><g id="XMLID_364_"><g id="XMLID_373_"><path d="M91,481c-5.523,0-10-4.478-10-10V56c0-30.327,24.673-55,55-55h175c5.522,0,10,4.477,10,10       s-4.478,10-10,10H136c-19.299,0-35,15.701-35,35v415C101,476.522,96.523,481,91,481z" id="XMLID_125_"/></g><g id="XMLID_372_"><path d="M421,451c-5.522,0-10-4.478-10-10V21h-60c-5.522,0-10-4.477-10-10s4.478-10,10-10h70       c5.522,0,10,4.477,10,10v430C431,446.522,426.522,451,421,451z" id="XMLID_124_"/></g><g id="XMLID_371_"><path d="M421,511H121c-22.056,0-40-17.944-40-40c0-10.681,4.162-20.725,11.719-28.281       C100.277,435.162,110.32,431,121,431h300c5.522,0,10,4.478,10,10v60C431,506.522,426.522,511,421,511z M121,451       c-5.338,0-10.359,2.082-14.139,5.861C103.082,460.641,101,465.662,101,471c0,11.028,8.972,20,20,20h290v-40H121z" id="XMLID_121_"/></g><g id="XMLID_370_"><path d="M351,91c-1.529,0-3.061-0.35-4.472-1.056L331,82.18l-15.528,7.764c-3.099,1.55-6.78,1.385-9.729-0.438       C302.795,87.685,301,84.466,301,81V11c0-5.523,4.478-10,10-10h40c5.522,0,10,4.477,10,10v70c0,3.466-1.795,6.685-4.743,8.506       C354.651,90.499,352.828,91,351,91z M331,61c1.532,0,3.064,0.352,4.472,1.056L341,64.82V21h-20v43.82l5.528-2.764       C327.936,61.352,329.468,61,331,61z" id="XMLID_118_"/></g><g id="XMLID_369_"><path d="M151,451c-5.523,0-10-4.478-10-10V11c0-5.523,4.477-10,10-10s10,4.477,10,10v430       C161,446.522,156.523,451,151,451z" id="XMLID_117_"/></g><g id="XMLID_368_"><path d="M286,341c-5.528,0-11.083-0.435-16.511-1.292c-24.432-3.861-46.824-16.357-63.053-35.186       C190.034,285.491,181,261.156,181,236c0-30.838,13.475-59.992,36.969-79.986C236.909,139.884,261.07,131,286,131       c14.725,0,28.972,2.991,42.346,8.891l0,0C366.406,156.681,391,194.406,391,236c0,33.329-16.063,64.999-42.969,84.717       C329.958,333.984,308.505,341,286,341z M286,151c-20.183,0-39.738,7.189-55.066,20.243C211.91,187.433,201,211.035,201,236       c0,42.088,30.117,77.396,71.61,83.953c4.398,0.694,8.903,1.047,13.39,1.047c18.219,0,35.578-5.675,50.202-16.411       C357.994,288.62,371,262.98,371,236c0-33.674-19.911-64.217-50.727-77.811C309.459,153.419,297.928,151,286,151z" id="XMLID_114_"/></g><g id="XMLID_367_"><path d="M342.114,322.653c-4.376,0-8.394-2.895-9.627-7.316c-5.541-19.871-5.709-35.575-0.5-46.675       c6.813-14.544,6.731-23.037-20.923-61.171c-16.984-23.43-14.552-47.481,6.673-65.988c4.162-3.63,10.479-3.199,14.109,0.965       c3.63,4.163,3.197,10.479-0.965,14.109c-13.386,11.672-14.538,24.12-3.625,39.174c27.794,38.327,34.99,55.464,22.839,81.401       c-3.032,6.461-2.442,18.111,1.657,32.812c1.483,5.32-1.627,10.835-6.946,12.319       C343.908,322.533,343.004,322.653,342.114,322.653z" id="XMLID_113_"/></g><g id="XMLID_366_"><path d="M271.041,339.832c-1.614,0-3.252-0.392-4.771-1.218c-4.851-2.64-6.645-8.712-4.005-13.563       c1.161-2.135,2.402-4.428,3.713-6.87c9.666-17.985,3.639-28.89-3.991-42.694c-6.878-12.442-15.437-27.927-7.783-47.869       c4.682-12.206-8.852-33.27-36.202-56.344c-4.221-3.561-4.756-9.87-1.195-14.091c3.561-4.221,9.87-4.756,14.091-1.195       c24.885,20.994,52.368,51.707,41.979,78.794c-4.118,10.729-0.368,18.398,6.614,31.03c8.434,15.259,18.931,34.249,4.107,61.832       c-1.327,2.474-2.586,4.8-3.765,6.966C278.021,337.942,274.586,339.832,271.041,339.832z" id="XMLID_112_"/></g><g id="XMLID_365_"><path d="M371,401H201c-5.523,0-10-4.478-10-10s4.477-10,10-10h170c5.522,0,10,4.478,10,10S376.522,401,371,401       z" id="XMLID_111_"/></g></g></g></g></g><g id="Layer_1"/></svg>