<?xml version="1.0" ?><svg id="Layer_1" style="enable-background:new 0 0 120 120;" version="1.1" viewBox="0 0 120 120" xml:space="preserve" xmlns="http://www.w3.org/2000/svg" xmlns:xlink="http://www.w3.org/1999/xlink"><style type="text/css">
	.st0{fill:#F2F4F7;}
	.st1{fill:#B9D0FF;}
	.st2{fill:#9AB4E2;}
	.st3{fill:#F9D7BD;}
	.st4{fill:#F9F0EA;}
	.st5{fill:#84CC6D;}
</style><g><path class="st0" d="M84.7,105.2H35.3c-2.2,0-4-1.8-4-4V18.7c0-2.2,1.8-4,4-4h49.3c2.2,0,4,1.8,4,4v82.5   C88.6,103.4,86.9,105.2,84.7,105.2z"/><path class="st1" d="M79.1,91.4H40.9c-1.6,0-2.9-1.3-2.9-2.9v-64c0-1.6,1.3-2.9,2.9-2.9h38.3c1.6,0,2.9,1.3,2.9,2.9v64   C82,90.2,80.7,91.4,79.1,91.4z"/><g><path class="st2" d="M78.9,21.7H41.1c-1.7,0-3.1,1.4-3.1,3.1v4.4h44v-4.4C82,23.1,80.6,21.7,78.9,21.7z"/><path class="st2" d="M66.5,96.6h-13c-0.8,0-1.5,0.7-1.5,1.5v0.3c0,0.8,0.7,1.5,1.5,1.5h13c0.8,0,1.5-0.7,1.5-1.5v-0.3    C68,97.3,67.3,96.6,66.5,96.6z"/></g><g><circle class="st3" cx="60" cy="61.8" r="9.6"/><path class="st3" d="M60,73.9c-9.7,0-18.1,5.6-22,13.8v0.8c0,1.6,1.3,2.9,2.9,2.9h38.3c1.6,0,2.9-1.3,2.9-2.9v-0.8    C78.1,79.6,69.7,73.9,60,73.9z"/></g><path class="st4" d="M50.4,45h-8.2c-0.5,0-0.9-0.4-0.9-0.9V33.2c0-0.5,0.4-0.9,0.9-0.9h8.2c0.5,0,0.9,0.4,0.9,0.9v10.9   C51.3,44.6,50.9,45,50.4,45z"/><path class="st5" d="M91.4,52.2H74.5c-1.4,0-2.5-1.1-2.5-2.5V36.1c0-1.4,1.1-2.5,2.5-2.5h16.9c1.4,0,2.5,1.1,2.5,2.5v13.6   C93.9,51,92.8,52.2,91.4,52.2z"/><path class="st4" d="M89,39.2l-2.2,1.5v-1.3c0-0.8-0.7-1.5-1.5-1.5h-8.1c-0.8,0-1.5,0.7-1.5,1.5v7c0,0.8,0.7,1.5,1.5,1.5h8.1   c0.8,0,1.5-0.7,1.5-1.5V45l2.2,1.5c0.5,0.3,1.1,0,1.1-0.6v-6.2C90.1,39.2,89.5,38.8,89,39.2z"/></g></svg>