<?xml version="1.0" ?><svg data-name="Layer 1" id="Layer_1" viewBox="0 0 64 64" xmlns="http://www.w3.org/2000/svg"><defs><style>
      .cls-1 {
        fill: #f5dd90;
      }

      .cls-2 {
        fill: #ffbc0a;
      }

      .cls-3 {
        fill: #a3cef1;
      }

      .cls-4 {
        fill: #6096ba;
      }

      .cls-5 {
        fill: #274c77;
      }
    </style></defs><polyline class="cls-5" points="50 29 54 29 54 59 37 59 35 61 29 61 27 59 10 59 10 29 14 29"/><path class="cls-3" d="M23.6,23.55h-.01c-1.13-.36-2.34-.55-3.59-.55v26c6.63,0,12,5.37,12,12,0-6.63,5.37-12,12-12V23c-1.25,0-2.46,.19-3.59,.55-.72,.7-1.53,1.32-2.41,1.83v1.62c.55,0,1,.45,1,1v2c0,.55-.45,1-1,1h-12c-.55,0-1-.45-1-1v-2c0-.55,.45-1,1-1v-1.62c-.88-.51-1.68-1.12-2.4-1.83h-.01"/><path class="cls-4" d="M38,31c0,3.31-2.69,6-6,6s-6-2.69-6-6"/><path class="cls-1" d="M44,15c0-6.63-5.37-12-12-12s-12,5.37-12,12c0,4.44,2.42,8.31,6,10.38v1.62h12v-1.62c3.58-2.08,6-5.94,6-10.38Z"/><rect class="cls-5" height="4" rx="1" ry="1" width="14" x="25" y="27"/><path class="cls-3" d="M38.93,19.07c.34-.59,.92-.94,1.54-1,.34-.96,.53-1.99,.53-3.07s-.19-2.11-.53-3.07c-.62-.06-1.21-.41-1.54-1-.34-.59-.34-1.29-.08-1.87-1.32-1.57-3.14-2.68-5.22-3.06-.36,.52-.96,.86-1.63,.86s-1.27-.34-1.63-.86c-2.08,.39-3.9,1.5-5.22,3.06,.26,.58,.25,1.27-.08,1.87-.34,.59-.92,.94-1.54,1-.34,.96-.53,1.99-.53,3.07s.19,2.11,.53,3.07c.62,.06,1.21,.41,1.54,1,.34,.59,.34,1.29,.08,1.87,1.32,1.57,3.14,2.68,5.22,3.06,.36-.52,.96-.86,1.63-.86s1.27,.34,1.63,.86c2.08-.39,3.9-1.5,5.22-3.06-.26-.58-.25-1.27,.08-1.87Z"/><circle class="cls-2" cx="32" cy="15" r="5"/><path class="cls-4" d="M32,61c0-6.63-5.37-12-12-12V24l-6,2v27s12.15-3,18,8Z"/><path class="cls-4" d="M50,53V26s-6-2-6-2v25c-6.63,0-12,5.37-12,12,5.85-11,18-8,18-8Z"/><path d="M24.39,21.58c1.49,1.78,3.55,2.99,5.8,3.41,.39,.07,.78-.09,1-.41,.38-.55,1.23-.55,1.62,0,.19,.27,.5,.43,.82,.43,.06,0,.12,0,.18-.02,2.25-.42,4.31-1.63,5.8-3.41,.25-.29,.3-.7,.15-1.05-.14-.31-.13-.67,.04-.96,.16-.29,.45-.47,.77-.5,.39-.04,.72-.3,.85-.67,.39-1.11,.58-2.25,.58-3.4s-.2-2.29-.58-3.4c-.13-.37-.46-.63-.85-.67-.33-.03-.61-.22-.77-.5-.17-.29-.18-.65-.04-.96,.16-.35,.1-.76-.15-1.05-1.49-1.78-3.55-2.99-5.8-3.41-.39-.07-.78,.09-1,.41-.38,.55-1.23,.55-1.62,0-.23-.32-.62-.48-1-.41-2.25,.42-4.31,1.63-5.8,3.41-.25,.29-.3,.7-.15,1.05,.14,.31,.13,.67-.04,.96-.16,.29-.45,.47-.77,.5-.39,.04-.72,.3-.85,.67-.39,1.11-.58,2.25-.58,3.4s.2,2.29,.58,3.4c.13,.37,.46,.63,.85,.67,.33,.03,.61,.22,.77,.5,.17,.29,.18,.65,.04,.96-.16,.35-.1,.76,.15,1.05Zm-.08-4.36c-.21-.73-.31-1.48-.31-2.22s.1-1.49,.31-2.22c.68-.24,1.27-.71,1.63-1.36,.36-.64,.48-1.4,.33-2.11,1.03-1.07,2.33-1.84,3.75-2.21,1.09,.97,2.87,.97,3.96,0,1.42,.37,2.72,1.14,3.75,2.21-.14,.72-.03,1.47,.33,2.11,.37,.64,.95,1.12,1.63,1.36,.21,.73,.31,1.48,.31,2.22s-.1,1.49-.31,2.22c-.68,.24-1.27,.71-1.63,1.36,0,0,0,0,0,0-.36,.64-.48,1.4-.33,2.11-1.03,1.07-2.33,1.84-3.75,2.21-.54-.48-1.25-.76-1.98-.76s-1.44,.28-1.98,.76c-1.42-.37-2.72-1.14-3.75-2.21,.14-.72,.03-1.47-.33-2.11-.36-.64-.95-1.12-1.63-1.36Z"/><path d="M32,21c3.31,0,6-2.69,6-6s-2.69-6-6-6-6,2.69-6,6,2.69,6,6,6Zm0-10c2.21,0,4,1.79,4,4s-1.79,4-4,4-4-1.79-4-4,1.79-4,4-4Z"/><path d="M19,23v.28l-5.32,1.77c-.41,.14-.68,.52-.68,.95v2h-3c-.55,0-1,.45-1,1v30c0,.55,.45,1,1,1H26.59l1.71,1.71c.19,.19,.44,.29,.71,.29h6c.27,0,.52-.11,.71-.29l1.71-1.71h16.59c.55,0,1-.45,1-1V29c0-.55-.45-1-1-1h-3v-2c0-.43-.28-.81-.68-.95l-5.32-1.77v-.28c0-.55-.45-1-1-1-.38,0-.75,.02-1.12,.05,1.35-2.08,2.12-4.51,2.12-7.05,0-7.17-5.83-13-13-13s-13,5.83-13,13c0,2.54,.78,4.98,2.12,7.05-.37-.03-.75-.05-1.12-.05-.55,0-1,.45-1,1Zm-4,3.72l4-1.33v23.61c0,.55,.45,1,1,1,4.51,0,8.39,2.73,10.09,6.62-5.18-5.42-12.26-5.17-15.09-4.8V26.72Zm14.41,33.28l-1.71-1.71c-.19-.19-.44-.29-.71-.29H11V30h2v23c0,.31,.14,.6,.38,.79,.24,.19,.56,.26,.86,.18,.11-.03,10.31-2.42,15.99,6.03h-.82Zm7.48-28c-.46,2.28-2.48,4-4.9,4s-4.43-1.72-4.9-4h9.8Zm-10.9-2v-2h12v2s-12,0-12,0Zm24.62,23.79c.24-.19,.38-.48,.38-.79V30h2v28h-16c-.27,0-.52,.11-.71,.29l-1.71,1.71h-.82c5.63-8.43,15.55-6.14,15.99-6.03,.3,.07,.61,0,.86-.19Zm-5.62-4.79V25.39l4,1.33v25.1c-2.83-.37-9.91-.62-15.09,4.8,1.7-3.89,5.58-6.62,10.09-6.62,.55,0,1-.45,1-1Zm-2-24.96v23.99c-4.21,.32-7.86,2.66-10,6.05v-16.17c3.14-.45,5.62-3,5.96-6.18,.62-.34,1.04-.99,1.04-1.74v-2c0-.74-.41-1.37-1-1.72v-.34c.67-.43,1.28-.94,1.86-1.48,.69-.21,1.41-.36,2.14-.42ZM21,15c0-6.07,4.93-11,11-11s11,4.93,11,11c0,3.9-2.11,7.55-5.5,9.52-.31,.18-.5,.51-.5,.87v.62h-10v-.62c0-.36-.19-.69-.5-.87-3.39-1.97-5.5-5.61-5.5-9.52Zm0,9.04c.73,.07,1.45,.21,2.14,.42,.57,.54,1.18,1.04,1.86,1.48v.34c-.59,.35-1,.98-1,1.72v2c0,.75,.42,1.4,1.04,1.74,.34,3.18,2.81,5.72,5.96,6.18v16.17c-2.14-3.39-5.79-5.73-10-6.05V24.04Z"/></svg>