<?xml version="1.0" ?><svg id="Layer_1" style="enable-background:new 0 0 120 120;" version="1.1" viewBox="0 0 120 120" xml:space="preserve" xmlns="http://www.w3.org/2000/svg" xmlns:xlink="http://www.w3.org/1999/xlink"><style type="text/css">
	.st0{fill:#E85B6C;}
	.st1{fill:#FFFFFF;}
</style><g><path class="st0" d="M98.5,17h-77c-6.8,0-12.4,5.5-12.4,12.4v47.2c0,6.8,5.5,12.4,12.4,12.4h27.7l7.5,12.9c0.8,1.4,2.9,1.4,3.7,0   L67.9,89h30.6c6.8,0,12.4-5.5,12.4-12.4V29.4C110.9,22.5,105.4,17,98.5,17z"/><g><g><polygon class="st1" points="49.9,46.6 54.4,46.6 54.4,64.9 58.4,64.9 58.4,43.3 49.9,43.3    "/><path class="st1" d="M76.4,44.3C75,43.4,73.5,43,71.7,43c-1.7,0-3.2,0.4-4.6,1.3c-1.4,0.9-2.4,2.1-3.2,3.8     c-0.8,1.7-1.2,3.7-1.2,6c0,2.4,0.4,4.4,1.2,6c0.8,1.7,1.9,2.9,3.2,3.8c1.4,0.9,2.9,1.3,4.6,1.3c1.7,0,3.3-0.4,4.6-1.3     c1.4-0.9,2.4-2.1,3.2-3.8s1.2-3.7,1.2-6c0-2.4-0.4-4.4-1.2-6S77.7,45.1,76.4,44.3z M76.1,58.4c-0.4,1.1-1,2-1.7,2.5     c-0.7,0.5-1.6,0.8-2.6,0.8c-1,0-1.8-0.3-2.6-0.8c-0.8-0.5-1.3-1.4-1.8-2.5c-0.4-1.1-0.6-2.6-0.6-4.3c0-1.7,0.2-3.2,0.6-4.3     c0.4-1.1,1-2,1.8-2.5c0.8-0.5,1.6-0.8,2.6-0.8c1,0,1.9,0.3,2.6,0.8c0.7,0.5,1.3,1.4,1.7,2.5c0.4,1.1,0.6,2.6,0.6,4.3     C76.7,55.8,76.5,57.2,76.1,58.4z"/><path class="st1" d="M100.4,48c-0.8-1.7-1.9-2.9-3.2-3.8c-1.4-0.9-2.9-1.3-4.6-1.3c-1.7,0-3.2,0.4-4.6,1.3     c-1.4,0.9-2.4,2.1-3.2,3.8c-0.8,1.7-1.2,3.7-1.2,6c0,2.4,0.4,4.4,1.2,6c0.8,1.7,1.9,2.9,3.2,3.8c1.4,0.9,2.9,1.3,4.6,1.3     c1.7,0,3.3-0.4,4.6-1.3c1.4-0.9,2.4-2.1,3.2-3.8c0.8-1.7,1.2-3.7,1.2-6C101.6,51.7,101.2,49.7,100.4,48z M96.9,58.4     c-0.4,1.1-1,2-1.7,2.5c-0.7,0.5-1.6,0.8-2.6,0.8c-1,0-1.8-0.3-2.6-0.8c-0.8-0.5-1.3-1.4-1.8-2.5c-0.4-1.1-0.6-2.6-0.6-4.3     c0-1.7,0.2-3.2,0.6-4.3c0.4-1.1,1-2,1.8-2.5c0.8-0.5,1.6-0.8,2.6-0.8c1,0,1.9,0.3,2.6,0.8c0.7,0.5,1.3,1.4,1.7,2.5     c0.4,1.1,0.6,2.6,0.6,4.3C97.5,55.8,97.3,57.2,96.9,58.4z"/></g><path class="st1" d="M43,43.7L43,43.7c-2.2-2.4-5.7-2.9-8.5-1.3l-2.3,1.4c-0.4,0.2-0.9,0.2-1.3,0l-2.3-1.4    c-2.8-1.7-6.3-1.1-8.5,1.3l0,0c-2.3,2.5-2.3,6.3-0.1,8.9l9.4,11c1.1,1.3,3.2,1.3,4.3,0l9.4-11C45.3,50,45.3,46.2,43,43.7z"/></g></g></svg>