<?xml version="1.0" ?><svg viewBox="0 0 24 24" xmlns="http://www.w3.org/2000/svg"><defs><style>.cls-1{fill:none;}.cls-2{fill:#ff4c3a;}.cls-3{fill:#fff;}</style></defs><title/><g data-name="Layer 2" id="Layer_2"><g data-name="Layer 3" id="Layer_3"><rect class="cls-1" height="24" width="24"/><path class="cls-2" d="M1,12C1,4,4,1,12,1S23,4,23,12,20,23,12,23,1,20,1,12"/><path class="cls-3" d="M4.2,12A4.9,4.9,0,0,1,8.9,7.1a4.92,4.92,0,0,1,3.56,1.21c-.4.44-.81.88-1.25,1.28A3.5,3.5,0,0,0,8.28,9a3.11,3.11,0,1,0,2.1,5.84A2.71,2.71,0,0,0,12,13c-.94,0-1.89,0-2.84,0V11.3c1.58,0,3.16,0,4.74,0a5.54,5.54,0,0,1-1,3.93A5,5,0,0,1,4.2,12Z"/><path class="cls-3" d="M17,9.89h1.41V11.3H19.8v1.4H18.38v1.41H17v-1.4H15.54v-1.4H17C17,10.83,17,10.36,17,9.89Z"/></g></g></svg>