<svg xmlns="http://www.w3.org/2000/svg" viewBox="0 0 64 64"><defs><style>.cls-1{fill:#0090e0;}.cls-2{fill:#74d800;}.cls-3{opacity:0.15;}</style></defs><title>Map</title><g id="Layer_2" data-name="Layer 2"><g id="Layer_1-2" data-name="Layer 1"><path class="cls-1" d="M64,2V52a2,2,0,0,1-.84,1.63L57,58l-7.84,5.6A2,2,0,0,1,48,64a2,2,0,0,1-1.06-.3L36.7,57.3,32,54.36,17.06,63.7A2,2,0,0,1,16,64a2,2,0,0,1-1.16-.37l-14-10A2,2,0,0,1,0,52V2A2,2,0,0,1,1.08.22,2,2,0,0,1,3.16.37L16,9.55l.07,0,3.22-2,.18-.11L30.94.3a2,2,0,0,1,2.12,0L47.93,9.6l.07,0L60.84.37A2,2,0,0,1,62.92.22,2,2,0,0,1,64,2Z"/><path class="cls-2" d="M26,38c0,2-4,6-4,8s-6,0-6,0-2-4-6-4-4,4-6,4c-.86,0-2.46-1.48-4-3.49V27.84A4.7,4.7,0,0,1,4,28c5.06,2.53,6-2,8,0s2,0,2,0,0-4,4-4,4,4,4,4l4,4C28,34,26,36,26,38Z"/><path class="cls-2" d="M32,8c-2,0-6,6-8,8s-4,6,0,8,6,0,8,2,6-2,8-2,6-4,6-4-2-8-4-8H36C34,12,36,8,32,8Z"/><path class="cls-2" d="M58,44v6l-1,8-7.84,5.6A2,2,0,0,1,48,64a2,2,0,0,1-1.06-.3L36.7,57.3,38,56s2-4,0-6a27.61,27.61,0,0,1-6-8c-2-4,0-4,0-6a4.3,4.3,0,0,1,4-4c2,0,4,0,6-2s2.42-.21,6-2c4-2,6,6,4,6s0,8,2,6S58,42,58,44Z"/><path class="cls-3" d="M32,0V54.36L17.06,63.7A2,2,0,0,1,16,64V9.55l3.29-2,.18-.11Z"/><path class="cls-3" d="M64,2V52a2,2,0,0,1-.84,1.63l-14,10A2,2,0,0,1,48,64V9.55L60.84.37A2,2,0,0,1,62.92.22,2,2,0,0,1,64,2Z"/></g></g></svg>