<?xml version="1.0" ?><svg viewBox="0 0 24 24" xmlns="http://www.w3.org/2000/svg"><defs><style>.cls-1{fill:none;}.cls-2{fill:#00a3f8;}.cls-3{fill:#fff;}</style></defs><title/><g data-name="Layer 2" id="Layer_2"><g data-name="Layer 3" id="Layer_3"><rect class="cls-1" height="24" width="24"/><path class="cls-2" d="M1,12C1,4,4,1,12,1S23,4,23,12,20,23,12,23,1,20,1,12"/><path class="cls-3" d="M18.84,7.8a6,6,0,0,1-1.61.44A2.84,2.84,0,0,0,18.46,6.7a5.91,5.91,0,0,1-1.78.68,2.82,2.82,0,0,0-4-.16,2.75,2.75,0,0,0-.83,2.69A8,8,0,0,1,6.11,7,2.77,2.77,0,0,0,7,10.72a2.69,2.69,0,0,1-1.27-.35v0A2.78,2.78,0,0,0,8,13.12a2.67,2.67,0,0,1-.75.11,3,3,0,0,1-.52,0,2.8,2.8,0,0,0,2.62,1.92,5.72,5.72,0,0,1-3.47,1.2c-.22,0-.45,0-.68,0a8,8,0,0,0,4.3,1.25,7.9,7.9,0,0,0,8-7.78v-.5A5.68,5.68,0,0,0,18.84,7.8Z"/></g></g></svg>